<svg xmlns="http://www.w3.org/2000/svg" width="285.63946533203125" height="265.8020324707031" viewBox="-31.79138946533203 -40.732749938964844 285.63946533203125 265.8020324707031"><title>Neo4j Graph Visualization</title><desc>Created using Neo4j (http://www.neo4j.com/)</desc><g class="layer relationships"><g class="relationship" transform="translate(162.2467339310451 196.06925895724544) rotate(243.79661791648255)"><path class="outline" fill="#A5ABB6" stroke="none" d="M 25 0.5 L 31.42919574081607 0.5 L 31.42919574081607 -0.5 L 25 -0.5 Z M 76.99169574081607 0.5 L 83.42089148163214 0.5 L 83.42089148163214 3.5 L 90.42089148163214 0 L 83.42089148163214 -3.5 L 83.42089148163214 -0.5 L 76.99169574081607 -0.5 Z"/><text text-anchor="middle" pointer-events="none" font-size="8px" fill="#000000" x="54.21044574081607" y="3" transform="rotate(180 54.21044574081607 0)" font-family="sans-serif">ACTED_IN</text></g><g class="relationship" transform="translate(224.84808173622514 91.45077004595012) rotate(539.4656672810123)"><path class="outline" fill="#A5ABB6" stroke="none" d="M 25 0.5 L 35.3989805933195 0.5 L 35.3989805933195 -0.5 L 25 -0.5 Z M 71.1724180933195 0.5 L 81.571398686639 0.5 L 81.571398686639 3.5 L 88.571398686639 0 L 81.571398686639 -3.5 L 81.571398686639 -0.5 L 71.1724180933195 -0.5 Z"/><text text-anchor="middle" pointer-events="none" font-size="8px" fill="#000000" x="53.2856993433195" y="3" transform="rotate(180 53.2856993433195 0)" font-family="sans-serif">WROTE</text></g><g class="relationship" transform="translate(156.29573418254793 -11.732751420431244) rotate(473.35567488806635)"><path class="outline" fill="#A5ABB6" stroke="none" d="M 25 0.5 L 30.49198752337854 0.5 L 30.49198752337854 -0.5 L 25 -0.5 Z M 76.05448752337854 0.5 L 81.54647504675708 0.5 L 81.54647504675708 3.5 L 88.54647504675708 0 L 81.54647504675708 -3.5 L 81.54647504675708 -0.5 L 76.05448752337854 -0.5 Z"/><text text-anchor="middle" pointer-events="none" font-size="8px" fill="#000000" x="53.27323752337854" y="3" transform="rotate(180 53.27323752337854 0)" font-family="sans-serif">ACTED_IN</text></g><g class="relationship" transform="translate(35.56935823553451 5.444999443272823) rotate(408.9895457664891)"><path class="outline" fill="#A5ABB6" stroke="none" d="M 25 0.5 L 36.30349889300711 0.5 L 36.30349889300711 -0.5 L 25 -0.5 Z M 72.07693639300712 0.5 L 83.38043528601422 0.5 L 83.38043528601422 3.5 L 90.38043528601422 0 L 83.38043528601422 -3.5 L 83.38043528601422 -0.5 L 72.07693639300712 -0.5 Z"/><text text-anchor="middle" pointer-events="none" font-size="8px" fill="#000000" x="54.19021764300711" y="3" font-family="sans-serif">WROTE</text></g><g class="relationship" transform="translate(-2.791388622256405 106.22537023486326) rotate(353.1440052861917)"><path class="outline" fill="#A5ABB6" stroke="none" d="M 25 0.5 L 30.50197997601849 0.5 L 30.50197997601849 -0.5 L 25 -0.5 Z M 77.39260497601849 0.5 L 82.89458495203698 0.5 L 82.89458495203698 3.5 L 89.89458495203698 0 L 82.89458495203698 -3.5 L 82.89458495203698 -0.5 L 77.39260497601849 -0.5 Z"/><text text-anchor="middle" pointer-events="none" font-size="8px" fill="#000000" x="53.94729247601849" y="3" font-family="sans-serif">DIRECTED</text></g><g class="relationship" transform="translate(54.47784084349316 192.4056393757583) rotate(299.6238895390871)"><path class="outline" fill="#A5ABB6" stroke="none" d="M 25 0.5 L 31.177054498041855 0.5 L 31.177054498041855 -0.5 L 25 -0.5 Z M 76.73955449804185 0.5 L 82.91660899608371 0.5 L 82.91660899608371 3.5 L 89.91660899608371 0 L 82.91660899608371 -3.5 L 82.91660899608371 -0.5 L 76.73955449804185 -0.5 Z"/><text text-anchor="middle" pointer-events="none" font-size="8px" fill="#000000" x="53.958304498041855" y="3" font-family="sans-serif">ACTED_IN</text></g></g><g class="layer nodes"><g class="node" transform="translate(111.28162176615507,92.5099062534221)"><circle class="outline" cx="0" cy="0" r="25" fill="#57C7E3" stroke="#23b3d7" stroke-width="2px"/><text text-anchor="middle" pointer-events="none" font-family="sans-serif" dy="1.5625" font-size="25" fill="#2A2C34"/><text text-anchor="middle" pointer-events="none" font-family="sans-serif" dy="1.5625" font-size="25" fill="#2A2C34"/><text text-anchor="middle" pointer-events="none" font-family="sans-serif" dy="1.5625" font-size="25" fill="#2A2C34"/><text text-anchor="middle" pointer-events="none" x="0" y="-5" font-size="10px" fill="#2A2C34" font-family="sans-serif"> Captain</text><text text-anchor="middle" pointer-events="none" x="0" y="5" font-size="10px" fill="#2A2C34" font-family="sans-serif"> America:</text><text text-anchor="middle" pointer-events="none" x="0" y="15" font-size="10px" fill="#2A2C34" font-family="sans-serif"> The Fi…</text></g><g class="node" transform="translate(162.2467339310451,196.06925895724544)"><circle class="outline" cx="0" cy="0" r="25" fill="#F79767" stroke="#f36924" stroke-width="2px"/><text text-anchor="middle" pointer-events="none" font-family="sans-serif" dy="1.5625" font-size="25" fill="#FFFFFF"/><text text-anchor="middle" pointer-events="none" font-family="sans-serif" dy="1.5625" font-size="25" fill="#FFFFFF"/><text text-anchor="middle" pointer-events="none" font-family="sans-serif" dy="1.5625" font-size="25" fill="#FFFFFF"/><text text-anchor="middle" pointer-events="none" x="0" y="-5" font-size="10px" fill="#FFFFFF" font-family="sans-serif"> Samuel</text><text text-anchor="middle" pointer-events="none" x="0" y="5" font-size="10px" fill="#FFFFFF" font-family="sans-serif"> L.</text><text text-anchor="middle" pointer-events="none" x="0" y="15" font-size="10px" fill="#FFFFFF" font-family="sans-serif"> Jackson</text></g><g class="node" transform="translate(224.84808173622514,91.45077004595012)"><circle class="outline" cx="0" cy="0" r="25" fill="#F79767" stroke="#f36924" stroke-width="2px"/><text text-anchor="middle" pointer-events="none" font-family="sans-serif" dy="1.5625" font-size="25" fill="#FFFFFF"/><text text-anchor="middle" pointer-events="none" font-family="sans-serif" dy="1.5625" font-size="25" fill="#FFFFFF"/><text text-anchor="middle" pointer-events="none" x="0" y="0" font-size="10px" fill="#FFFFFF" font-family="sans-serif"> Stephen</text><text text-anchor="middle" pointer-events="none" x="0" y="10" font-size="10px" fill="#FFFFFF" font-family="sans-serif"> McFeely</text></g><g class="node" transform="translate(156.29573418254793,-11.732751420431244)"><circle class="outline" cx="0" cy="0" r="25" fill="#F79767" stroke="#f36924" stroke-width="2px"/><text text-anchor="middle" pointer-events="none" font-family="sans-serif" dy="1.5625" font-size="25" fill="#FFFFFF"/><text text-anchor="middle" pointer-events="none" font-family="sans-serif" dy="1.5625" font-size="25" fill="#FFFFFF"/><text text-anchor="middle" pointer-events="none" x="0" y="0" font-size="10px" fill="#FFFFFF" font-family="sans-serif"> Chris</text><text text-anchor="middle" pointer-events="none" x="0" y="10" font-size="10px" fill="#FFFFFF" font-family="sans-serif"> Evans</text></g><g class="node" transform="translate(35.56935823553451,5.444999443272823)"><circle class="outline" cx="0" cy="0" r="25" fill="#F79767" stroke="#f36924" stroke-width="2px"/><text text-anchor="middle" pointer-events="none" font-family="sans-serif" dy="1.5625" font-size="25" fill="#FFFFFF"/><text text-anchor="middle" pointer-events="none" x="0" y="5" font-size="10px" fill="#FFFFFF" font-family="sans-serif"> Christop…</text></g><g class="node" transform="translate(-2.791388622256405,106.22537023486326)"><circle class="outline" cx="0" cy="0" r="25" fill="#F79767" stroke="#f36924" stroke-width="2px"/><text text-anchor="middle" pointer-events="none" font-family="sans-serif" dy="1.5625" font-size="25" fill="#FFFFFF"/><text text-anchor="middle" pointer-events="none" font-family="sans-serif" dy="1.5625" font-size="25" fill="#FFFFFF"/><text text-anchor="middle" pointer-events="none" x="0" y="0" font-size="10px" fill="#FFFFFF" font-family="sans-serif"> Joe</text><text text-anchor="middle" pointer-events="none" x="0" y="10" font-size="10px" fill="#FFFFFF" font-family="sans-serif"> Johnston</text></g><g class="node" transform="translate(54.47784084349316,192.4056393757583)"><circle class="outline" cx="0" cy="0" r="25" fill="#F79767" stroke="#f36924" stroke-width="2px"/><text text-anchor="middle" pointer-events="none" font-family="sans-serif" dy="1.5625" font-size="25" fill="#FFFFFF"/><text text-anchor="middle" pointer-events="none" font-family="sans-serif" dy="1.5625" font-size="25" fill="#FFFFFF"/><text text-anchor="middle" pointer-events="none" x="0" y="0" font-size="10px" fill="#FFFFFF" font-family="sans-serif"> Hugo</text><text text-anchor="middle" pointer-events="none" x="0" y="10" font-size="10px" fill="#FFFFFF" font-family="sans-serif"> Weaving</text></g></g></svg>