<svg xmlns="http://www.w3.org/2000/svg" width="410.1963195800781" height="282.80712890625" viewBox="-135.43731689453125 -39.62895202636719 410.1963195800781 282.80712890625"><title>Neo4j Graph Visualization</title><desc>Created using Neo4j (http://www.neo4j.com/)</desc><g class="layer relationships"><g class="relationship" transform="translate(157.45285474775645 103.75589854220482) rotate(463.9007532019949)"><path class="outline" fill="#A5ABB6" stroke="none" d="M 25 0.5 L 30.595634773405735 0.5 L 30.595634773405735 -0.5 L 25 -0.5 Z M 76.15813477340573 0.5 L 81.75376954681147 0.5 L 81.75376954681147 3.5 L 88.75376954681147 0 L 81.75376954681147 -3.5 L 81.75376954681147 -0.5 L 76.15813477340573 -0.5 Z"/><text text-anchor="middle" pointer-events="none" font-size="8px" fill="#000000" x="53.376884773405735" y="3" transform="rotate(180 53.376884773405735 0)" font-family="sans-serif">ACTED_IN</text></g><g class="relationship" transform="translate(157.45285474775645 103.75589854220482) rotate(397.08076589142155)"><path class="outline" fill="#A5ABB6" stroke="none" d="M 25 0.5 L 29.06322833191448 0.5 L 29.06322833191448 -0.5 L 25 -0.5 Z M 74.62572833191447 0.5 L 78.68895666382896 0.5 L 78.68895666382896 3.5 L 85.68895666382896 0 L 78.68895666382896 -3.5 L 78.68895666382896 -0.5 L 74.62572833191447 -0.5 Z"/><text text-anchor="middle" pointer-events="none" font-size="8px" fill="#000000" x="51.84447833191448" y="3" font-family="sans-serif">ACTED_IN</text></g><g class="relationship" transform="translate(157.45285474775645 103.75589854220482) rotate(320.0837149311915)"><path class="outline" fill="#A5ABB6" stroke="none" d="M 25 0.5 L 29.126867576868896 0.5 L 29.126867576868896 -0.5 L 25 -0.5 Z M 74.6893675768689 0.5 L 78.8162351537378 0.5 L 78.8162351537378 3.5 L 85.8162351537378 0 L 78.8162351537378 -3.5 L 78.8162351537378 -0.5 L 74.6893675768689 -0.5 Z"/><text text-anchor="middle" pointer-events="none" font-size="8px" fill="#000000" x="51.9081175768689" y="3" font-family="sans-serif">ACTED_IN</text></g><g class="relationship" transform="translate(157.45285474775645 103.75589854220482) rotate(251.52239608282883)"><path class="outline" fill="#A5ABB6" stroke="none" d="M 25 0.5 L 29.576993942949187 0.5 L 29.576993942949187 -0.5 L 25 -0.5 Z M 75.13949394294919 0.5 L 79.71648788589837 0.5 L 79.71648788589837 3.5 L 86.71648788589837 0 L 79.71648788589837 -3.5 L 79.71648788589837 -0.5 L 75.13949394294919 -0.5 Z"/><text text-anchor="middle" pointer-events="none" font-size="8px" fill="#000000" x="52.35824394294919" y="3" transform="rotate(180 52.35824394294919 0)" font-family="sans-serif">ACTED_IN</text></g><g class="relationship" transform="translate(157.45285474775645 103.75589854220482) rotate(517.9556025975382)"><path class="outline" fill="#A5ABB6" stroke="none" d="M 25 0.5 L 29.193746664642894 0.5 L 29.193746664642894 -0.5 L 25 -0.5 Z M 74.7562466646429 0.5 L 78.94999332928579 0.5 L 78.94999332928579 3.5 L 85.94999332928579 0 L 78.94999332928579 -3.5 L 78.94999332928579 -0.5 L 74.7562466646429 -0.5 Z"/><text text-anchor="middle" pointer-events="none" font-size="8px" fill="#000000" x="51.974996664642894" y="3" transform="rotate(180 51.974996664642894 0)" font-family="sans-serif">ACTED_IN</text></g><g class="relationship" transform="translate(-71.00772183378061 -10.628950162068667) rotate(469.0352589085629)"><path class="outline" fill="#A5ABB6" stroke="none" d="M 25 0.5 L 28.033625317904992 0.5 L 28.033625317904992 -0.5 L 25 -0.5 Z M 73.59612531790499 0.5 L 76.62975063580998 0.5 L 76.62975063580998 3.5 L 83.62975063580998 0 L 76.62975063580998 -3.5 L 76.62975063580998 -0.5 L 73.59612531790499 -0.5 Z"/><text text-anchor="middle" pointer-events="none" font-size="8px" fill="#000000" x="50.81487531790499" y="3" transform="rotate(180 50.81487531790499 0)" font-family="sans-serif">ACTED_IN</text></g></g><g class="layer nodes"><g class="node" transform="translate(157.45285474775645,103.75589854220482)"><circle class="outline" cx="0" cy="0" r="25" fill="#F79767" stroke="#f36924" stroke-width="2px"/><text text-anchor="middle" pointer-events="none" font-family="sans-serif" dy="1.5625" font-size="25" fill="#FFFFFF"/><text text-anchor="middle" pointer-events="none" font-family="sans-serif" dy="1.5625" font-size="25" fill="#FFFFFF"/><text text-anchor="middle" pointer-events="none" x="0" y="0" font-size="10px" fill="#FFFFFF" font-family="sans-serif"> Hugo</text><text text-anchor="middle" pointer-events="none" x="0" y="10" font-size="10px" fill="#FFFFFF" font-family="sans-serif"> Weaving</text></g><g class="node" transform="translate(130.1245577672426,214.17819823866074)"><circle class="outline" cx="0" cy="0" r="25" fill="#57C7E3" stroke="#23b3d7" stroke-width="2px"/><text text-anchor="middle" pointer-events="none" font-family="sans-serif" dy="1.5625" font-size="25" fill="#2A2C34"/><text text-anchor="middle" pointer-events="none" font-family="sans-serif" dy="1.5625" font-size="25" fill="#2A2C34"/><text text-anchor="middle" pointer-events="none" x="0" y="0" font-size="10px" fill="#2A2C34" font-family="sans-serif"> Cloud</text><text text-anchor="middle" pointer-events="none" x="0" y="10" font-size="10px" fill="#2A2C34" font-family="sans-serif"> Atlas</text></g><g class="node" transform="translate(245.7589967807116,170.49472087660442)"><circle class="outline" cx="0" cy="0" r="25" fill="#57C7E3" stroke="#23b3d7" stroke-width="2px"/><text text-anchor="middle" pointer-events="none" font-family="sans-serif" dy="1.5625" font-size="25" fill="#2A2C34"/><text text-anchor="middle" pointer-events="none" font-family="sans-serif" dy="1.5625" font-size="25" fill="#2A2C34"/><text text-anchor="middle" pointer-events="none" x="0" y="0" font-size="10px" fill="#2A2C34" font-family="sans-serif"> V for</text><text text-anchor="middle" pointer-events="none" x="0" y="10" font-size="10px" fill="#2A2C34" font-family="sans-serif"> Vendetta</text></g><g class="node" transform="translate(242.44700138606555,32.64870473683712)"><circle class="outline" cx="0" cy="0" r="25" fill="#57C7E3" stroke="#23b3d7" stroke-width="2px"/><text text-anchor="middle" pointer-events="none" font-family="sans-serif" dy="1.5625" font-size="25" fill="#2A2C34"/><text text-anchor="middle" pointer-events="none" font-family="sans-serif" dy="1.5625" font-size="25" fill="#2A2C34"/><text text-anchor="middle" pointer-events="none" font-family="sans-serif" dy="1.5625" font-size="25" fill="#2A2C34"/><text text-anchor="middle" pointer-events="none" x="0" y="-5" font-size="10px" fill="#2A2C34" font-family="sans-serif"> The</text><text text-anchor="middle" pointer-events="none" x="0" y="5" font-size="10px" fill="#2A2C34" font-family="sans-serif"> Matrix</text><text text-anchor="middle" pointer-events="none" x="0" y="15" font-size="10px" fill="#2A2C34" font-family="sans-serif"> Revol…</text></g><g class="node" transform="translate(122.0461073734216,-2.2013376709491688)"><circle class="outline" cx="0" cy="0" r="25" fill="#57C7E3" stroke="#23b3d7" stroke-width="2px"/><text text-anchor="middle" pointer-events="none" font-family="sans-serif" dy="1.5625" font-size="25" fill="#2A2C34"/><text text-anchor="middle" pointer-events="none" font-family="sans-serif" dy="1.5625" font-size="25" fill="#2A2C34"/><text text-anchor="middle" pointer-events="none" font-family="sans-serif" dy="1.5625" font-size="25" fill="#2A2C34"/><text text-anchor="middle" pointer-events="none" x="0" y="-5" font-size="10px" fill="#2A2C34" font-family="sans-serif"> The</text><text text-anchor="middle" pointer-events="none" x="0" y="5" font-size="10px" fill="#2A2C34" font-family="sans-serif"> Matrix</text><text text-anchor="middle" pointer-events="none" x="0" y="15" font-size="10px" fill="#2A2C34" font-family="sans-serif"> Reloa…</text></g><g class="node" transform="translate(54.614049211455,145.3981978979721)"><circle class="outline" cx="0" cy="0" r="25" fill="#57C7E3" stroke="#23b3d7" stroke-width="2px"/><text text-anchor="middle" pointer-events="none" font-family="sans-serif" dy="1.5625" font-size="25" fill="#2A2C34"/><text text-anchor="middle" pointer-events="none" font-family="sans-serif" dy="1.5625" font-size="25" fill="#2A2C34"/><text text-anchor="middle" pointer-events="none" x="0" y="0" font-size="10px" fill="#2A2C34" font-family="sans-serif"> The</text><text text-anchor="middle" pointer-events="none" x="0" y="10" font-size="10px" fill="#2A2C34" font-family="sans-serif"> Matrix</text></g><g class="node" transform="translate(-71.00772183378061,-10.628950162068667)"><circle class="outline" cx="0" cy="0" r="25" fill="#F79767" stroke="#f36924" stroke-width="2px"/><text text-anchor="middle" pointer-events="none" font-family="sans-serif" dy="1.5625" font-size="25" fill="#FFFFFF"/><text text-anchor="middle" pointer-events="none" font-family="sans-serif" dy="1.5625" font-size="25" fill="#FFFFFF"/><text text-anchor="middle" pointer-events="none" x="0" y="0" font-size="10px" fill="#FFFFFF" font-family="sans-serif"> Hugo</text><text text-anchor="middle" pointer-events="none" x="0" y="10" font-size="10px" fill="#FFFFFF" font-family="sans-serif"> Weaving</text></g><g class="node" transform="translate(-106.43730955263737,92.06071356934149)"><circle class="outline" cx="0" cy="0" r="25" fill="#57C7E3" stroke="#23b3d7" stroke-width="2px"/><text text-anchor="middle" pointer-events="none" font-family="sans-serif" dy="1.5625" font-size="25" fill="#2A2C34"/><text text-anchor="middle" pointer-events="none" font-family="sans-serif" dy="1.5625" font-size="25" fill="#2A2C34"/><text text-anchor="middle" pointer-events="none" font-family="sans-serif" dy="1.5625" font-size="25" fill="#2A2C34"/><text text-anchor="middle" pointer-events="none" x="0" y="-5" font-size="10px" fill="#2A2C34" font-family="sans-serif"> Captain</text><text text-anchor="middle" pointer-events="none" x="0" y="5" font-size="10px" fill="#2A2C34" font-family="sans-serif"> America:</text><text text-anchor="middle" pointer-events="none" x="0" y="15" font-size="10px" fill="#2A2C34" font-family="sans-serif"> The Fi…</text></g></g></svg>