<svg xmlns="http://www.w3.org/2000/svg" width="385.037841796875" height="349.92181396484375" viewBox="-77.43098449707031 -81.84934997558594 385.037841796875 349.92181396484375"><title>Neo4j Graph Visualization</title><desc>Created using Neo4j (http://www.neo4j.com/)</desc><g class="layer relationships"><g class="relationship" transform="translate(31.109183084593663 -4.92910335182565) rotate(378.5890646485009)"><path class="outline" fill="#A5ABB6" stroke="none" d="M 24.018736134675446,-6.953439040707552 L 24.277555179777966,-5.987513214418485 A 143.10958695998357 143.10958695998357 0 0 1 48.41136749492672,-10.280747000719572 L 48.321187133142445,-11.276672450915726 A 144.10958695998357 144.10958695998357 0 0 0 24.018736134675446,-6.953439040707552 Z M 70.38586726260687,-11.578220188394852 L 70.32293719922843,-10.580202249115615 A 143.10958695998357 143.10958695998357 0 0 1 94.56506140284594,-6.948099923595955 L 93.8680846253845,-4.030185707639724 L 101.48969070298739,-5.808139812178641 L 95.49436377279453,-10.838652211537598 L 94.79738699533308,-7.920737995581367 A 144.10958695998357 144.10958695998357 0 0 0 70.38586726260687,-11.578220188394852"/><text text-anchor="middle" pointer-events="none" font-size="8px" fill="#000000" x="59.35457954276303" y="-8.350444735952294" font-family="sans-serif">road</text></g><g class="relationship" transform="translate(150.35145320957824 35.17501988928144) rotate(375.2254091169069)"><path class="outline" fill="#A5ABB6" stroke="none" d="M 21.40063509461097,-12.933012701892217 L 21.90063509461097,-12.06698729810778 A 86.11786971876363 86.11786971876363 0 0 1 40.05395238295568,-19.92456582376505 L 39.764748555081496,-20.881833365230293 A 87.11786971876363 87.11786971876363 0 0 0 21.40063509461097,-12.933012701892217 Z M 85.92485327412874,-22.044279473195118 L 85.68419905028446,-21.07366856013782 A 86.11786971876363 86.11786971876363 0 0 1 104.21000869757682,-14.139777461304908 L 102.84268137497475,-11.469493582601032 L 110.66855896831956,-11.394394355017358 L 106.03311179437961,-17.700155966243408 L 104.66578447177753,-15.029872087539532 A 87.11786971876363 87.11786971876363 0 0 0 85.92485327412874,-22.044279473195118"/><text text-anchor="middle" pointer-events="none" font-size="8px" fill="#000000" x="62.778970624576154" y="-21.07714154591369" font-family="sans-serif">twowheeler</text></g><g class="relationship" transform="translate(278.60687010437186 70.08232915383238) rotate(218.74506021283491)"><path class="outline" fill="#A5ABB6" stroke="none" d="M 21.40063509461097,12.933012701892217 L 21.90063509461097,12.06698729810778 A 45.89105506522167 45.89105506522167 0 0 0 23.726798810898245,13.066791763277692 L 23.26659226767739,13.954603645140459 A 46.89105506522167 46.89105506522167 0 0 1 21.40063509461097,12.933012701892217 Z M 63.46242004632701,15.361430785452484 L 63.065409200799834,14.44361686720228 A 45.89105506522167 45.89105506522167 0 0 0 64.95700381461322,13.573931461868856 L 63.642313544877034,10.877342969966357 L 71.46815867400841,10.955752247801517 L 66.70992417426146,17.169382784405524 L 65.39523390452527,14.472794292503025 A 46.89105506522167 46.89105506522167 0 0 1 63.46242004632701,15.361430785452484"/><text text-anchor="middle" pointer-events="none" font-size="8px" fill="#000000" x="43.22350020603854" y="21.686835510231397" transform="rotate(180 43.22350020603854 18.686835510231397)" font-family="sans-serif">twowhe…</text></g><g class="relationship" transform="translate(205.3396636453847 11.289564080817367) rotate(466.86503079530587)"><path class="outline" fill="#A5ABB6" stroke="none" d="M 25 0.5 L 60.934561695553526 0.5 L 60.934561695553526 -0.5 L 25 -0.5 Z M 80.27049919555353 0.5 L 116.20506089110705 0.5 L 116.20506089110705 3.5 L 123.20506089110705 0 L 116.20506089110705 -3.5 L 116.20506089110705 -0.5 L 80.27049919555353 -0.5 Z"/><text text-anchor="middle" pointer-events="none" font-size="8px" fill="#000000" x="70.60253044555353" y="3" transform="rotate(180 70.60253044555353 0)" font-family="sans-serif">trek</text></g><g class="relationship" transform="translate(31.109183084593663 -4.92910335182565) rotate(378.5890646485009)"><path class="outline" fill="#A5ABB6" stroke="none" d="M 24.018736134675446,6.953439040707552 L 24.277555179777966,5.987513214418485 A 143.10958695998357 143.10958695998357 0 0 0 49.73970855192353,10.394791696266054 L 49.65881017526138,11.391514051113887 A 144.10958695998357 144.10958695998357 0 0 1 24.018736134675446,6.953439040707552 Z M 69.04560540664303,11.656464379180846 L 68.99197563954772,10.657903490661113 A 143.10958695998357 143.10958695998357 0 0 0 94.56506140284594,6.948099923595955 L 93.8680846253845,4.030185707639724 L 101.48969070298739,5.808139812178641 L 95.49436377279453,10.838652211537598 L 94.79738699533308,7.920737995581367 A 144.10958695998357 144.10958695998357 0 0 1 69.04560540664303,11.656464379180846"/><text text-anchor="middle" pointer-events="none" font-size="8px" fill="#000000" x="59.35457954276307" y="14.350444735952294" font-family="sans-serif">trek</text></g><g class="relationship" transform="translate(150.35145320957824 35.17501988928144) rotate(375.2254091169069)"><path class="outline" fill="#A5ABB6" stroke="none" d="M 25 0.5 L 51.95460293709259 0.5 L 51.95460293709259 -0.5 L 25 -0.5 Z M 73.96632168709259 0.5 L 100.92092462418518 0.5 L 100.92092462418518 3.5 L 107.92092462418518 0 L 100.92092462418518 -3.5 L 100.92092462418518 -0.5 L 73.96632168709259 -0.5 Z"/><text text-anchor="middle" pointer-events="none" font-size="8px" fill="#000000" x="62.96046231209259" y="3" font-family="sans-serif">road</text></g><g class="relationship" transform="translate(150.35145320957824 35.17501988928144) rotate(375.2254091169069)"><path class="outline" fill="#A5ABB6" stroke="none" d="M 21.40063509461097,12.933012701892217 L 21.90063509461097,12.06698729810778 A 86.11786971876363 86.11786971876363 0 0 0 53.215874357134325,22.800106110864135 L 53.07950665975387,23.79076440266367 A 87.11786971876363 87.11786971876363 0 0 1 21.40063509461097,12.933012701892217 Z M 72.48055446977625,24.279339388670863 L 72.394223335417,23.28307289056896 A 86.11786971876363 86.11786971876363 0 0 0 104.21000869757682,14.139777461304908 L 102.84268137497475,11.469493582601032 L 110.66855896831956,11.394394355017358 L 106.03311179437961,17.700155966243408 L 104.66578447177753,15.029872087539532 A 87.11786971876363 87.11786971876363 0 0 1 72.48055446977625,24.279339388670863"/><text text-anchor="middle" pointer-events="none" font-size="8px" fill="#000000" x="62.77897062457618" y="27.07714154591369" font-family="sans-serif">trek</text></g><g class="relationship" transform="translate(278.60687010437186 70.08232915383238) rotate(218.74506021283491)"><path class="outline" fill="#A5ABB6" stroke="none" d="M 25 0.5 L 32.464005344931294 0.5 L 32.464005344931294 -0.5 L 25 -0.5 Z M 54.475724094931294 0.5 L 61.93972943986259 0.5 L 61.93972943986259 3.5 L 68.93972943986259 0 L 61.93972943986259 -3.5 L 61.93972943986259 -0.5 L 54.475724094931294 -0.5 Z"/><text text-anchor="middle" pointer-events="none" font-size="8px" fill="#000000" x="43.469864719931294" y="3" transform="rotate(180 43.469864719931294 0)" font-family="sans-serif">road</text></g><g class="relationship" transform="translate(278.60687010437186 70.08232915383238) rotate(218.74506021283491)"><path class="outline" fill="#A5ABB6" stroke="none" d="M 21.40063509461097,-12.933012701892217 L 21.90063509461097,-12.06698729810778 A 45.89105506522167 45.89105506522167 0 0 1 33.78683997953748,-16.862694022056793 L 33.54584916701494,-17.833221419032128 A 46.89105506522167 46.89105506522167 0 0 0 21.40063509461097,-12.933012701892217 Z M 52.937149654812906,-18.511903991820702 L 52.76460103085174,-17.526902990618616 A 45.89105506522167 45.89105506522167 0 0 1 64.95700381461322,-13.573931461868856 L 63.642313544877034,-10.877342969966357 L 71.46815867400841,-10.955752247801517 L 66.70992417426146,-17.169382784405524 L 65.39523390452527,-14.472794292503025 A 46.89105506522167 46.89105506522167 0 0 0 52.937149654812906,-18.511903991820702"/><text text-anchor="middle" pointer-events="none" font-size="8px" fill="#000000" x="43.22350020603853" y="-15.686835510231397" transform="rotate(180 43.22350020603853 -18.686835510231397)" font-family="sans-serif">trek</text></g><g class="relationship" transform="translate(31.109183084593663 -4.92910335182565) rotate(324.26771154632195)"><path class="outline" fill="#A5ABB6" stroke="none" d="M 21.40063509461097,12.933012701892217 L 21.90063509461097,12.06698729810778 A 33.39154533517935 33.39154533517935 0 0 0 27.935435696055926,14.793001331143174 L 27.61616409723858,15.740664586835095 A 34.39154533517935 34.39154533517935 0 0 1 21.40063509461097,12.933012701892217 Z M 46.9570830746341,16.50887939375366 L 46.71398043906042,15.538878822322317 A 33.39154533517935 33.39154533517935 0 0 0 52.945981024414046,13.300098013118665 L 51.656770855956026,10.591235310517362 L 59.48152902522676,10.7434180704835 L 54.66492791569141,16.911914949920405 L 53.37571774723339,14.203052247319102 A 34.39154533517935 34.39154533517935 0 0 1 46.9570830746341,16.50887939375366"/><text text-anchor="middle" pointer-events="none" font-size="8px" fill="#000000" x="37.25130759422601" y="20.013903165747188" font-family="sans-serif">trek</text></g><g class="relationship" transform="translate(97.71801505128305 -52.84934637997887) rotate(390.79353097556054)"><path class="outline" fill="#A5ABB6" stroke="none" d="M 25 0.5 L 49.47430747223337 0.5 L 49.47430747223337 -0.5 L 25 -0.5 Z M 68.81024497223336 0.5 L 93.28455244446674 0.5 L 93.28455244446674 3.5 L 100.28455244446674 0 L 93.28455244446674 -3.5 L 93.28455244446674 -0.5 L 68.81024497223336 -0.5 Z"/><text text-anchor="middle" pointer-events="none" font-size="8px" fill="#000000" x="59.14227622223337" y="3" font-family="sans-serif">trek</text></g><g class="relationship" transform="translate(31.109183084593663 -4.92910335182565) rotate(324.26771154632195)"><path class="outline" fill="#A5ABB6" stroke="none" d="M 25 0.5 L 26.521833065118805 0.5 L 26.521833065118805 -0.5 L 25 -0.5 Z M 48.533551815118805 0.5 L 50.05538488023761 0.5 L 50.05538488023761 3.5 L 57.05538488023761 0 L 50.05538488023761 -3.5 L 50.05538488023761 -0.5 L 48.533551815118805 -0.5 Z"/><text text-anchor="middle" pointer-events="none" font-size="8px" fill="#000000" x="37.527692440118805" y="3" font-family="sans-serif">road</text></g><g class="relationship" transform="translate(31.109183084593663 -4.92910335182565) rotate(324.26771154632195)"><path class="outline" fill="#A5ABB6" stroke="none" d="M 21.40063509461097,-12.933012701892217 L 21.90063509461097,-12.06698729810778 A 33.39154533517935 33.39154533517935 0 0 1 22.333868262921506,-12.312824393466066 L 21.846842600106616,-13.186212052961963 A 34.39154533517935 34.39154533517935 0 0 0 21.40063509461097,-12.933012701892217 Z M 52.910833640594305,-14.42006334550803 L 52.49461431288206,-13.51079909830661 A 33.39154533517935 33.39154533517935 0 0 1 52.945981024414046,-13.300098013118665 L 51.656770855956026,-10.591235310517362 L 59.48152902522676,-10.7434180704835 L 54.66492791569141,-16.911914949920405 L 53.37571774723339,-14.203052247319102 A 34.39154533517935 34.39154533517935 0 0 0 52.910833640594305,-14.42006334550803"/><text text-anchor="middle" pointer-events="none" font-size="8px" fill="#000000" x="37.25130759422602" y="-14.013903165747188" font-family="sans-serif">Publi…</text></g><g class="relationship" transform="translate(97.71801505128305 -52.84934637997887) rotate(494.6008948501728)"><path class="outline" fill="#A5ABB6" stroke="none" d="M 24.018736134675446,-6.953439040707552 L 24.277555179777966,-5.987513214418485 A 191.79039804210285 191.79039804210285 0 0 1 48.60893164217117,-10.845550664351862 L 48.47697701108927,-11.836806421125061 A 192.79039804210285 192.79039804210285 0 0 0 24.018736134675446,-6.953439040707552 Z M 94.94630084521762,-12.3722095476665 L 94.83722000821578,-11.378176665414117 A 191.79039804210285 191.79039804210285 0 0 1 119.27406775104109,-7.082029459645881 L 118.5645822081796,-4.167131474386268 L 126.19374397379043,-5.912379523845692 L 120.2200484748564,-10.968560106658698 L 119.51056293199491,-8.053662121399086 A 192.79039804210285 192.79039804210285 0 0 0 94.94630084521762,-12.3722095476665"/><text text-anchor="middle" pointer-events="none" font-size="8px" fill="#000000" x="71.70120788924393" y="-10.009850708379844" transform="rotate(180 71.70120788924393 -13.009850708379844)" font-family="sans-serif">twowheeler</text></g><g class="relationship" transform="translate(-7.946851992615978 54.297929958603575) rotate(420.38334278456796)"><path class="outline" fill="#A5ABB6" stroke="none" d="M 24.018736134675446,-6.953439040707552 L 24.277555179777966,-5.987513214418485 A 117.70760104153467 117.70760104153467 0 0 1 30.013694215356605,-7.3713875313410995 L 29.80360727408444,-8.349070239128707 A 118.70760104153467 118.70760104153467 0 0 0 24.018736134675446,-6.953439040707552 Z M 76.15986398659874,-9.050249620469643 L 75.9794430218414,-8.066660135228958 A 117.70760104153467 117.70760104153467 0 0 1 81.75481295783864,-6.856907572550824 L 81.06635387865859,-3.936971940333126 L 88.68273927954327,-5.737158993167012 L 82.67275839674537,-10.750155082174423 L 81.98429931756532,-7.830219449956724 A 118.70760104153467 118.70760104153467 0 0 0 76.15986398659874,-9.050249620469643"/><text text-anchor="middle" pointer-events="none" font-size="8px" fill="#000000" x="52.954734075987844" y="-7.484782280181847" font-family="sans-serif">twowheeler</text></g><g class="relationship" transform="translate(47.90481889669413 152.54813242539888) rotate(360.28653983800257)"><path class="outline" fill="#A5ABB6" stroke="none" d="M 24.018736134675446,6.953439040707552 L 24.277555179777966,5.987513214418485 A 120.54294501403086 120.54294501403086 0 0 0 30.715658945587265,7.524462103633823 L 30.51024911298623,8.503138148436605 A 121.54294501403086 121.54294501403086 0 0 1 24.018736134675446,6.953439040707552 Z M 76.87590926000131,9.196221264045633 L 76.69984355618465,8.211842847002913 A 120.54294501403086 120.54294501403086 0 0 0 83.18100976426963,6.868013776560979 L 82.49151330326423,3.948322931580808 L 90.10853781272426,5.745803841711724 L 84.1003383789435,10.760934903201205 L 83.4108419179381,7.841244058221035 A 121.54294501403086 121.54294501403086 0 0 1 76.87590926000131,9.196221264045633"/><text text-anchor="middle" pointer-events="none" font-size="8px" fill="#000000" x="53.66719318724437" y="13.581393286810325" font-family="sans-serif">twowheeler</text></g><g class="relationship" transform="translate(97.71801505128305 -52.84934637997887) rotate(494.6008948501728)"><path class="outline" fill="#A5ABB6" stroke="none" d="M 24.018736134675446,6.953439040707552 L 24.277555179777966,5.987513214418485 A 191.79039804210285 191.79039804210285 0 0 0 62.071632588615124,12.156493034141192 L 62.00987282173852,13.154584077681477 A 192.79039804210285 192.79039804210285 0 0 1 24.018736134675446,6.953439040707552 Z M 81.38663559019194,13.377836290378013 L 81.34788846997647,12.378587242004699 A 191.79039804210285 191.79039804210285 0 0 0 119.27406775104109,7.082029459645881 L 118.5645822081796,4.167131474386268 L 126.19374397379043,5.912379523845692 L 120.2200484748564,10.968560106658698 L 119.51056293199491,8.053662121399086 A 192.79039804210285 192.79039804210285 0 0 1 81.38663559019194,13.377836290378013"/><text text-anchor="middle" pointer-events="none" font-size="8px" fill="#000000" x="71.70120788924393" y="16.009850708379844" transform="rotate(180 71.70120788924393 13.009850708379844)" font-family="sans-serif">trek</text></g><g class="relationship" transform="translate(-7.946851992615978 54.297929958603575) rotate(420.38334278456796)"><path class="outline" fill="#A5ABB6" stroke="none" d="M 24.018736134675446,6.953439040707552 L 24.277555179777966,5.987513214418485 A 117.70760104153467 117.70760104153467 0 0 0 43.353001669129426,9.445974974568614 L 43.256240522757,10.441282605682076 A 118.70760104153467 118.70760104153467 0 0 1 24.018736134675446,6.953439040707552 Z M 62.6501064025924,10.734631979505906 L 62.58349245158543,9.736853155551799 A 117.70760104153467 117.70760104153467 0 0 0 81.75481295783864,6.856907572550824 L 81.06635387865859,3.936971940333126 L 88.68273927954327,5.737158993167012 L 82.67275839674537,10.750155082174423 L 81.98429931756532,7.830219449956724 A 118.70760104153467 118.70760104153467 0 0 1 62.6501064025924,10.734631979505906"/><text text-anchor="middle" pointer-events="none" font-size="8px" fill="#000000" x="52.954734075987844" y="13.484782280181847" font-family="sans-serif">trek</text></g><g class="relationship" transform="translate(47.90481889669413 152.54813242539888) rotate(360.28653983800257)"><path class="outline" fill="#A5ABB6" stroke="none" d="M 24.018736134675446,-6.953439040707552 L 24.277555179777966,-5.987513214418485 A 120.54294501403086 120.54294501403086 0 0 1 44.06368600764025,-9.553437558364436 L 43.969008719863794,-10.548945574996793 A 121.54294501403086 121.54294501403086 0 0 0 24.018736134675446,-6.953439040707552 Z M 63.36201438332098,-10.838836083265946 L 63.29713485221981,-9.840942979549865 A 120.54294501403086 120.54294501403086 0 0 1 83.18100976426963,-6.868013776560979 L 82.49151330326423,-3.948322931580808 L 90.10853781272426,-5.745803841711724 L 84.1003383789435,-10.760934903201205 L 83.4108419179381,-7.841244058221035 A 121.54294501403086 121.54294501403086 0 0 0 63.36201438332098,-10.838836083265946"/><text text-anchor="middle" pointer-events="none" font-size="8px" fill="#000000" x="53.66719318724436" y="-7.581393286810325" font-family="sans-serif">trek</text></g><g class="relationship" transform="translate(97.71801505128305 -52.84934637997887) rotate(419.123037354443)"><path class="outline" fill="#A5ABB6" stroke="none" d="M 25 0.5 L 38.11206603320772 0.5 L 38.11206603320772 -0.5 L 25 -0.5 Z M 57.44800353320772 0.5 L 70.56006956641544 0.5 L 70.56006956641544 3.5 L 77.56006956641544 0 L 70.56006956641544 -3.5 L 70.56006956641544 -0.5 L 57.44800353320772 -0.5 Z"/><text text-anchor="middle" pointer-events="none" font-size="8px" fill="#000000" x="47.78003478320772" y="3" font-family="sans-serif">trek</text></g><g class="relationship" transform="translate(-7.946851992615978 54.297929958603575) rotate(468.4578712442941)"><path class="outline" fill="#A5ABB6" stroke="none" d="M 24.018736134675446,-6.953439040707552 L 24.277555179777966,-5.987513214418485 A 147.1938117365929 147.1938117365929 0 0 1 37.361628409601565,-8.86228075545256 L 37.191699468474596,-9.847737073595312 A 148.1938117365929 148.1938117365929 0 0 0 24.018736134675446,-6.953439040707552 Z M 83.61761138928708,-10.472496085590166 L 83.47426198648878,-9.482823943556582 A 147.1938117365929 147.1938117365929 0 0 1 96.630955346341,-6.9611815158539825 L 95.93275673397268,-4.043559419405071 L 103.55510667344984,-5.818321769736045 L 97.56188682949876,-10.851344311119199 L 96.86368821713044,-7.933722214670287 A 148.1938117365929 148.1938117365929 0 0 0 83.61761138928708,-10.472496085590166"/><text text-anchor="middle" pointer-events="none" font-size="8px" fill="#000000" x="60.38676374903928" y="-8.489649305798793" transform="rotate(180 60.38676374903928 -11.489649305798793)" font-family="sans-serif">twowheeler</text></g><g class="relationship" transform="translate(-48.430989543988794 175.58857117697877) rotate(346.5493512409421)"><path class="outline" fill="#A5ABB6" stroke="none" d="M 21.40063509461097,12.933012701892217 L 21.90063509461097,12.06698729810778 A 51.22333635102521 51.22333635102521 0 0 0 23.747111656314665,13.082987237072679 L 23.28315922160893,13.96884734924086 A 52.22333635102521 52.22333635102521 0 0 1 21.40063509461097,12.933012701892217 Z M 68.61039489710953,15.47810306507116 L 68.20639750626546,14.563342928100163 A 51.22333635102521 51.22333635102521 0 0 0 70.11636862474204,13.672420992416061 L 68.79251506707548,10.980319256252734 L 76.61858160206756,11.032112980554649 L 71.88150670163078,17.261889973967165 L 70.55765314396423,14.569788237803838 A 52.22333635102521 52.22333635102521 0 0 1 68.61039489710953,15.47810306507116"/><text text-anchor="middle" pointer-events="none" font-size="8px" fill="#000000" x="45.79103123875263" y="22.400964543166715" font-family="sans-serif">twowheeler</text></g><g class="relationship" transform="translate(-7.946851992615978 54.297929958603575) rotate(468.4578712442941)"><path class="outline" fill="#A5ABB6" stroke="none" d="M 24.018736134675446,6.953439040707552 L 24.277555179777966,5.987513214418485 A 147.1938117365929 147.1938117365929 0 0 0 50.77024595966094,10.54491831248589 L 50.691411999986414,11.541806072869178 A 148.1938117365929 148.1938117365929 0 0 1 24.018736134675446,6.953439040707552 Z M 70.07720108748399,11.802682939600516 L 70.02522129144005,10.804034802966157 A 147.1938117365929 147.1938117365929 0 0 0 96.630955346341,6.9611815158539825 L 95.93275673397268,4.043559419405071 L 103.55510667344984,5.818321769736045 L 97.56188682949876,10.851344311119199 L 96.86368821713044,7.933722214670287 A 148.1938117365929 148.1938117365929 0 0 1 70.07720108748399,11.802682939600516"/><text text-anchor="middle" pointer-events="none" font-size="8px" fill="#000000" x="60.3867637490393" y="14.489649305798793" transform="rotate(180 60.3867637490393 11.489649305798793)" font-family="sans-serif">trek</text></g><g class="relationship" transform="translate(-48.430989543988794 175.58857117697877) rotate(346.5493512409421)"><path class="outline" fill="#A5ABB6" stroke="none" d="M 25 0.5 L 35.02052199338098 0.5 L 35.02052199338098 -0.5 L 25 -0.5 Z M 57.03224074338098 0.5 L 67.05276273676196 0.5 L 67.05276273676196 3.5 L 74.05276273676196 0 L 67.05276273676196 -3.5 L 67.05276273676196 -0.5 L 57.03224074338098 -0.5 Z"/><text text-anchor="middle" pointer-events="none" font-size="8px" fill="#000000" x="46.02638136838098" y="3" font-family="sans-serif">road</text></g><g class="relationship" transform="translate(-48.430989543988794 175.58857117697877) rotate(346.5493512409421)"><path class="outline" fill="#A5ABB6" stroke="none" d="M 21.40063509461097,-12.933012701892217 L 21.90063509461097,-12.06698729810778 A 51.22333635102521 51.22333635102521 0 0 1 36.32377906956076,-17.692746052163614 L 36.10535276238136,-18.668599498297795 A 52.22333635102521 52.22333635102521 0 0 0 21.40063509461097,-12.933012701892217 Z M 55.50397375173505,-19.31451313435111 L 55.350945028562435,-18.326291393098593 A 51.22333635102521 51.22333635102521 0 0 1 70.11636862474204,-13.672420992416061 L 68.79251506707548,-10.980319256252734 L 76.61858160206756,-11.032112980554649 L 71.88150670163078,-17.261889973967165 L 70.55765314396423,-14.569788237803838 A 52.22333635102521 52.22333635102521 0 0 0 55.50397375173505,-19.31451313435111"/><text text-anchor="middle" pointer-events="none" font-size="8px" fill="#000000" x="45.79103123875263" y="-16.400964543166715" font-family="sans-serif">trek</text></g><g class="relationship" transform="translate(-48.430989543988794 175.58857117697877) rotate(389.55791047252785)"><path class="outline" fill="#A5ABB6" stroke="none" d="M 25 0.5 L 51.17774558781663 0.5 L 51.17774558781663 -0.5 L 25 -0.5 Z M 70.51368308781663 0.5 L 96.69142867563326 0.5 L 96.69142867563326 3.5 L 103.69142867563326 0 L 96.69142867563326 -3.5 L 96.69142867563326 -0.5 L 70.51368308781663 -0.5 Z"/><text text-anchor="middle" pointer-events="none" font-size="8px" fill="#000000" x="60.84571433781663" y="3" font-family="sans-serif">trek</text></g><g class="relationship" transform="translate(63.51222066296939 239.07243923128354) rotate(318.986800446144)"><path class="outline" fill="#A5ABB6" stroke="none" d="M 25 0.5 L 52.320971106196424 0.5 L 52.320971106196424 -0.5 L 25 -0.5 Z M 71.65690860619642 0.5 L 98.97787971239285 0.5 L 98.97787971239285 3.5 L 105.97787971239285 0 L 98.97787971239285 -3.5 L 98.97787971239285 -0.5 L 71.65690860619642 -0.5 Z"/><text text-anchor="middle" pointer-events="none" font-size="8px" fill="#000000" x="61.988939856196424" y="3" font-family="sans-serif">trek</text></g></g><g class="layer nodes"><g class="node" transform="translate(31.109183084593663,-4.92910335182565)"><circle class="outline" cx="0" cy="0" r="25" fill="#F16667" stroke="#eb2728" stroke-width="2px"/><text text-anchor="middle" pointer-events="none" font-family="sans-serif" dy="1.5625" font-size="25" fill="#FFFFFF"/><text text-anchor="middle" pointer-events="none" x="0" y="5" font-size="10px" fill="#FFFFFF" font-family="sans-serif"> Darjeeling</text></g><g class="node" transform="translate(162.3426826540575,153.12044823292368)"><circle class="outline" cx="0" cy="0" r="25" fill="#8DCC93" stroke="#5db665" stroke-width="2px"/><text text-anchor="middle" pointer-events="none" font-family="sans-serif" dy="1.5625" font-size="25" fill="#2A2C34"/><text text-anchor="middle" pointer-events="none" x="0" y="5" font-size="10px" fill="#2A2C34" font-family="sans-serif"> Sandak…</text></g><g class="node" transform="translate(150.35145320957824,35.17501988928144)"><circle class="outline" cx="0" cy="0" r="25" fill="#D9C8AE" stroke="#c0a378" stroke-width="2px"/><text text-anchor="middle" pointer-events="none" font-family="sans-serif" dy="1.5625" font-size="25" fill="#2A2C34"/><text text-anchor="middle" pointer-events="none" x="0" y="5" font-size="10px" fill="#2A2C34" font-family="sans-serif"> Tumbling</text></g><g class="node" transform="translate(278.60687010437186,70.08232915383238)"><circle class="outline" cx="0" cy="0" r="25" fill="#D9C8AE" stroke="#c0a378" stroke-width="2px"/><text text-anchor="middle" pointer-events="none" font-family="sans-serif" dy="1.5625" font-size="25" fill="#2A2C34"/><text text-anchor="middle" pointer-events="none" x="0" y="5" font-size="10px" fill="#2A2C34" font-family="sans-serif"> Gairibus</text></g><g class="node" transform="translate(205.3396636453847,11.289564080817367)"><circle class="outline" cx="0" cy="0" r="25" fill="#D9C8AE" stroke="#c0a378" stroke-width="2px"/><text text-anchor="middle" pointer-events="none" font-family="sans-serif" dy="1.5625" font-size="25" fill="#2A2C34"/><text text-anchor="middle" pointer-events="none" x="0" y="5" font-size="10px" fill="#2A2C34" font-family="sans-serif"> BhikeBh…</text></g><g class="node" transform="translate(97.71801505128305,-52.84934637997887)"><circle class="outline" cx="0" cy="0" r="25" fill="#F16667" stroke="#eb2728" stroke-width="2px"/><text text-anchor="middle" pointer-events="none" font-family="sans-serif" dy="1.5625" font-size="25" fill="#FFFFFF"/><text text-anchor="middle" pointer-events="none" x="0" y="5" font-size="10px" fill="#FFFFFF" font-family="sans-serif"> Rimbik</text></g><g class="node" transform="translate(-7.946851992615978,54.297929958603575)"><circle class="outline" cx="0" cy="0" r="25" fill="#D9C8AE" stroke="#c0a378" stroke-width="2px"/><text text-anchor="middle" pointer-events="none" font-family="sans-serif" dy="1.5625" font-size="25" fill="#2A2C34"/><text text-anchor="middle" pointer-events="none" x="0" y="5" font-size="10px" fill="#2A2C34" font-family="sans-serif"> Sirikhola</text></g><g class="node" transform="translate(47.90481889669413,152.54813242539888)"><circle class="outline" cx="0" cy="0" r="25" fill="#D9C8AE" stroke="#c0a378" stroke-width="2px"/><text text-anchor="middle" pointer-events="none" font-family="sans-serif" dy="1.5625" font-size="25" fill="#2A2C34"/><text text-anchor="middle" pointer-events="none" x="0" y="5" font-size="10px" fill="#2A2C34" font-family="sans-serif"> Gurdum</text></g><g class="node" transform="translate(-48.430989543988794,175.58857117697877)"><circle class="outline" cx="0" cy="0" r="25" fill="#D9C8AE" stroke="#c0a378" stroke-width="2px"/><text text-anchor="middle" pointer-events="none" font-family="sans-serif" dy="1.5625" font-size="25" fill="#2A2C34"/><text text-anchor="middle" pointer-events="none" x="0" y="5" font-size="10px" fill="#2A2C34" font-family="sans-serif"> Rammam</text></g><g class="node" transform="translate(63.51222066296939,239.07243923128354)"><circle class="outline" cx="0" cy="0" r="25" fill="#8DCC93" stroke="#5db665" stroke-width="2px"/><text text-anchor="middle" pointer-events="none" font-family="sans-serif" dy="1.5625" font-size="25" fill="#2A2C34"/><text text-anchor="middle" pointer-events="none" x="0" y="5" font-size="10px" fill="#2A2C34" font-family="sans-serif"> Sabargr…</text></g></g></svg>