<svg xmlns="http://www.w3.org/2000/svg" width="627.57080078125" height="629.0198974609375" viewBox="-218.2030792236328 -231.14999389648438 627.57080078125 629.0198974609375"><title>Neo4j Graph Visualization</title><desc>Created using Neo4j (http://www.neo4j.com/)</desc><g class="layer relationships"><g class="relationship" transform="translate(-54.8632261303808 133.95832722957806) rotate(336.32922617226404)"><path class="outline" fill="#A5ABB6" stroke="none" d="M 25 0.5 L 61.326344963796885 0.5 L 61.326344963796885 -0.5 L 25 -0.5 Z M 95.77165746379688 0.5 L 132.09800242759377 0.5 L 132.09800242759377 3.5 L 139.09800242759377 0 L 132.09800242759377 -3.5 L 132.09800242759377 -0.5 L 95.77165746379688 -0.5 Z"/><text text-anchor="middle" pointer-events="none" font-size="8px" fill="#000000" x="78.54900121379688" y="3" font-family="sans-serif">ORIGIN</text></g><g class="relationship" transform="translate(-54.8632261303808 133.95832722957806) rotate(201.64820912046105)"><path class="outline" fill="#A5ABB6" stroke="none" d="M 25 0.5 L 39.173440559511135 0.5 L 39.173440559511135 -0.5 L 25 -0.5 Z M 98.36094055951114 0.5 L 112.53438111902227 0.5 L 112.53438111902227 3.5 L 119.53438111902227 0 L 112.53438111902227 -3.5 L 112.53438111902227 -0.5 L 98.36094055951114 -0.5 Z"/><text text-anchor="middle" pointer-events="none" font-size="8px" fill="#000000" x="68.76719055951114" y="3" transform="rotate(180 68.76719055951114 0)" font-family="sans-serif">DESTINATION</text></g><g class="relationship" transform="translate(267.59707400800437 134.3787441998122) rotate(201.0618658591162)"><path class="outline" fill="#A5ABB6" stroke="none" d="M 25 0.5 L 71.5242235601774 0.5 L 71.5242235601774 -0.5 L 25 -0.5 Z M 105.9695360601774 0.5 L 152.4937596203548 0.5 L 152.4937596203548 3.5 L 159.4937596203548 0 L 152.4937596203548 -3.5 L 152.4937596203548 -0.5 L 105.9695360601774 -0.5 Z"/><text text-anchor="middle" pointer-events="none" font-size="8px" fill="#000000" x="88.7468798101774" y="3" transform="rotate(180 88.7468798101774 0)" font-family="sans-serif">ORIGIN</text></g><g class="relationship" transform="translate(267.59707400800437 134.3787441998122) rotate(389.18304283249995)"><path class="outline" fill="#A5ABB6" stroke="none" d="M 25 0.5 L 26.192022998964177 0.5 L 26.192022998964177 -0.5 L 25 -0.5 Z M 69.52796049896418 0.5 L 70.71998349792835 0.5 L 70.71998349792835 3.5 L 77.71998349792835 0 L 70.71998349792835 -3.5 L 70.71998349792835 -0.5 L 69.52796049896418 -0.5 Z"/><text text-anchor="middle" pointer-events="none" font-size="8px" fill="#000000" x="47.85999174896418" y="3" font-family="sans-serif">DESTIN…</text></g><g class="relationship" transform="translate(243.0724077342034 -2.478308972955661) rotate(514.4582595995153)"><path class="outline" fill="#A5ABB6" stroke="none" d="M 25 0.5 L 61.095078121104024 0.5 L 61.095078121104024 -0.5 L 25 -0.5 Z M 95.54039062110402 0.5 L 131.63546874220805 0.5 L 131.63546874220805 3.5 L 138.63546874220805 0 L 131.63546874220805 -3.5 L 131.63546874220805 -0.5 L 95.54039062110402 -0.5 Z"/><text text-anchor="middle" pointer-events="none" font-size="8px" fill="#000000" x="78.31773437110402" y="3" transform="rotate(180 78.31773437110402 0)" font-family="sans-serif">ORIGIN</text></g><g class="relationship" transform="translate(243.0724077342034 -2.478308972955661) rotate(336.544308267896)"><path class="outline" fill="#A5ABB6" stroke="none" d="M 25 0.5 L 41.73733357455437 0.5 L 41.73733357455437 -0.5 L 25 -0.5 Z M 100.92483357455437 0.5 L 117.66216714910874 0.5 L 117.66216714910874 3.5 L 124.66216714910874 0 L 117.66216714910874 -3.5 L 117.66216714910874 -0.5 L 100.92483357455437 -0.5 Z"/><text text-anchor="middle" pointer-events="none" font-size="8px" fill="#000000" x="71.33108357455437" y="3" font-family="sans-serif">DESTINATION</text></g><g class="relationship" transform="translate(-33.79288755024908 62.13832140067849) rotate(362.63093309374443)"><path class="outline" fill="#A5ABB6" stroke="none" d="M 25 0.5 L 43.956364476307115 0.5 L 43.956364476307115 -0.5 L 25 -0.5 Z M 78.40167697630712 0.5 L 97.35804145261423 0.5 L 97.35804145261423 3.5 L 104.35804145261423 0 L 97.35804145261423 -3.5 L 97.35804145261423 -0.5 L 78.40167697630712 -0.5 Z"/><text text-anchor="middle" pointer-events="none" font-size="8px" fill="#000000" x="61.179020726307115" y="3" font-family="sans-serif">ORIGIN</text></g><g class="relationship" transform="translate(-33.79288755024908 62.13832140067849) rotate(533.2113581623594)"><path class="outline" fill="#A5ABB6" stroke="none" d="M 25 0.5 L 45.15998576016615 0.5 L 45.15998576016615 -0.5 L 25 -0.5 Z M 104.34748576016615 0.5 L 124.5074715203323 0.5 L 124.5074715203323 3.5 L 131.5074715203323 0 L 124.5074715203323 -3.5 L 124.5074715203323 -0.5 L 104.34748576016615 -0.5 Z"/><text text-anchor="middle" pointer-events="none" font-size="8px" fill="#000000" x="74.75373576016615" y="3" transform="rotate(180 74.75373576016615 0)" font-family="sans-serif">DESTINATION</text></g><g class="relationship" transform="translate(166.88705682464982 217.6688115940214) rotate(244.4668666645503)"><path class="outline" fill="#A5ABB6" stroke="none" d="M 25 0.5 L 62.16920900632583 0.5 L 62.16920900632583 -0.5 L 25 -0.5 Z M 96.61452150632583 0.5 L 133.78373051265166 0.5 L 133.78373051265166 3.5 L 140.78373051265166 0 L 133.78373051265166 -3.5 L 133.78373051265166 -0.5 L 96.61452150632583 -0.5 Z"/><text text-anchor="middle" pointer-events="none" font-size="8px" fill="#000000" x="79.39186525632583" y="3" transform="rotate(180 79.39186525632583 0)" font-family="sans-serif">ORIGIN</text></g><g class="relationship" transform="translate(166.88705682464982 217.6688115940214) rotate(444.0136293317542)"><path class="outline" fill="#A5ABB6" stroke="none" d="M 25 0.5 L 35.44275766987377 0.5 L 35.44275766987377 -0.5 L 25 -0.5 Z M 94.63025766987377 0.5 L 105.07301533974754 0.5 L 105.07301533974754 3.5 L 112.07301533974754 0 L 105.07301533974754 -3.5 L 105.07301533974754 -0.5 L 94.63025766987377 -0.5 Z"/><text text-anchor="middle" pointer-events="none" font-size="8px" fill="#000000" x="65.03650766987377" y="3" font-family="sans-serif">DESTINATION</text></g><g class="relationship" transform="translate(115.03019245643434 -106.13803831311779) rotate(456.41953171065416)"><path class="outline" fill="#A5ABB6" stroke="none" d="M 25 0.5 L 66.93405973403944 0.5 L 66.93405973403944 -0.5 L 25 -0.5 Z M 101.37937223403944 0.5 L 143.31343196807887 0.5 L 143.31343196807887 3.5 L 150.31343196807887 0 L 143.31343196807887 -3.5 L 143.31343196807887 -0.5 L 101.37937223403944 -0.5 Z"/><text text-anchor="middle" pointer-events="none" font-size="8px" fill="#000000" x="84.15671598403944" y="3" transform="rotate(180 84.15671598403944 0)" font-family="sans-serif">ORIGIN</text></g><g class="relationship" transform="translate(115.03019245643434 -106.13803831311779) rotate(249.01848629579285)"><path class="outline" fill="#A5ABB6" stroke="none" d="M 25 0.5 L 26.24702943893808 0.5 L 26.24702943893808 -0.5 L 25 -0.5 Z M 69.58296693893809 0.5 L 70.82999637787616 0.5 L 70.82999637787616 3.5 L 77.82999637787616 0 L 70.82999637787616 -3.5 L 70.82999637787616 -0.5 L 69.58296693893809 -0.5 Z"/><text text-anchor="middle" pointer-events="none" font-size="8px" fill="#000000" x="47.91499818893808" y="3" transform="rotate(180 47.91499818893808 0)" font-family="sans-serif">DESTIN…</text></g><g class="relationship" transform="translate(209.8079522984368 120.2248549393677) rotate(204.50958852530448)"><path class="outline" fill="#A5ABB6" stroke="none" d="M 25 0.5 L 42.13050003047861 0.5 L 42.13050003047861 -0.5 L 25 -0.5 Z M 76.5758125304786 0.5 L 93.70631256095722 0.5 L 93.70631256095722 3.5 L 100.70631256095722 0 L 93.70631256095722 -3.5 L 93.70631256095722 -0.5 L 76.5758125304786 -0.5 Z"/><text text-anchor="middle" pointer-events="none" font-size="8px" fill="#000000" x="59.35315628047861" y="3" transform="rotate(180 59.35315628047861 0)" font-family="sans-serif">ORIGIN</text></g><g class="relationship" transform="translate(209.8079522984368 120.2248549393677) rotate(383.5386401592928)"><path class="outline" fill="#A5ABB6" stroke="none" d="M 25 0.5 L 47.33379482543731 0.5 L 47.33379482543731 -0.5 L 25 -0.5 Z M 106.52129482543731 0.5 L 128.85508965087462 0.5 L 128.85508965087462 3.5 L 135.85508965087462 0 L 128.85508965087462 -3.5 L 128.85508965087462 -0.5 L 106.52129482543731 -0.5 Z"/><text text-anchor="middle" pointer-events="none" font-size="8px" fill="#000000" x="76.92754482543731" y="3" font-family="sans-serif">DESTINATION</text></g><g class="relationship" transform="translate(264.94660197334 74.70557250180948) rotate(182.2395537137764)"><path class="outline" fill="#A5ABB6" stroke="none" d="M 25 0.5 L 64.10103401620387 0.5 L 64.10103401620387 -0.5 L 25 -0.5 Z M 98.54634651620387 0.5 L 137.64738053240774 0.5 L 137.64738053240774 3.5 L 144.64738053240774 0 L 137.64738053240774 -3.5 L 137.64738053240774 -0.5 L 98.54634651620387 -0.5 Z"/><text text-anchor="middle" pointer-events="none" font-size="8px" fill="#000000" x="81.32369026620387" y="3" transform="rotate(180 81.32369026620387 0)" font-family="sans-serif">ORIGIN</text></g><g class="relationship" transform="translate(264.94660197334 74.70557250180948) rotate(409.9288136957733)"><path class="outline" fill="#A5ABB6" stroke="none" d="M 25 0.5 L 38.62154058295779 0.5 L 38.62154058295779 -0.5 L 25 -0.5 Z M 97.80904058295779 0.5 L 111.43058116591558 0.5 L 111.43058116591558 3.5 L 118.43058116591558 0 L 111.43058116591558 -3.5 L 111.43058116591558 -0.5 L 97.80904058295779 -0.5 Z"/><text text-anchor="middle" pointer-events="none" font-size="8px" fill="#000000" x="68.21529058295779" y="3" font-family="sans-serif">DESTINATION</text></g><g class="relationship" transform="translate(-88.81264369901817 84.76056640230021) rotate(354.8255613464845)"><path class="outline" fill="#A5ABB6" stroke="none" d="M 25 0.5 L 71.77501924608883 0.5 L 71.77501924608883 -0.5 L 25 -0.5 Z M 106.22033174608883 0.5 L 152.99535099217766 0.5 L 152.99535099217766 3.5 L 159.99535099217766 0 L 152.99535099217766 -3.5 L 152.99535099217766 -0.5 L 106.22033174608883 -0.5 Z"/><text text-anchor="middle" pointer-events="none" font-size="8px" fill="#000000" x="88.99767549608883" y="3" font-family="sans-serif">ORIGIN</text></g><g class="relationship" transform="translate(-88.81264369901817 84.76056640230021) rotate(182.35119596767788)"><path class="outline" fill="#A5ABB6" stroke="none" d="M 25 0.5 L 25.069542021844583 0.5 L 25.069542021844583 -0.5 L 25 -0.5 Z M 68.40547952184458 0.5 L 68.47502154368917 0.5 L 68.47502154368917 3.5 L 75.47502154368917 0 L 68.47502154368917 -3.5 L 68.47502154368917 -0.5 L 68.40547952184458 -0.5 Z"/><text text-anchor="middle" pointer-events="none" font-size="8px" fill="#000000" x="46.73751077184458" y="3" transform="rotate(180 46.73751077184458 0)" font-family="sans-serif">DESTIN…</text></g><g class="relationship" transform="translate(147.1862372552164 -55.68859917142602) rotate(472.6942936696502)"><path class="outline" fill="#A5ABB6" stroke="none" d="M 25 0.5 L 46.352947216233986 0.5 L 46.352947216233986 -0.5 L 25 -0.5 Z M 80.79825971623399 0.5 L 102.15120693246797 0.5 L 102.15120693246797 3.5 L 109.15120693246797 0 L 102.15120693246797 -3.5 L 102.15120693246797 -0.5 L 80.79825971623399 -0.5 Z"/><text text-anchor="middle" pointer-events="none" font-size="8px" fill="#000000" x="63.575603466233986" y="3" transform="rotate(180 63.575603466233986 0)" font-family="sans-serif">ORIGIN</text></g><g class="relationship" transform="translate(147.1862372552164 -55.68859917142602) rotate(244.78189330707266)"><path class="outline" fill="#A5ABB6" stroke="none" d="M 25 0.5 L 47.85165611913908 0.5 L 47.85165611913908 -0.5 L 25 -0.5 Z M 107.03915611913908 0.5 L 129.89081223827816 0.5 L 129.89081223827816 3.5 L 136.89081223827816 0 L 129.89081223827816 -3.5 L 129.89081223827816 -0.5 L 107.03915611913908 -0.5 Z"/><text text-anchor="middle" pointer-events="none" font-size="8px" fill="#000000" x="77.44540611913908" y="3" transform="rotate(180 77.44540611913908 0)" font-family="sans-serif">DESTINATION</text></g><g class="relationship" transform="translate(-74.8120818650159 18.482221628763863) rotate(376.2416986569409)"><path class="outline" fill="#A5ABB6" stroke="none" d="M 25 0.5 L 67.93612316741861 0.5 L 67.93612316741861 -0.5 L 25 -0.5 Z M 102.38143566741861 0.5 L 145.31755883483723 0.5 L 145.31755883483723 3.5 L 152.31755883483723 0 L 145.31755883483723 -3.5 L 145.31755883483723 -0.5 L 102.38143566741861 -0.5 Z"/><text text-anchor="middle" pointer-events="none" font-size="8px" fill="#000000" x="85.15877941741861" y="3" font-family="sans-serif">ORIGIN</text></g><g class="relationship" transform="translate(-74.8120818650159 18.482221628763863) rotate(511.4817623152325)"><path class="outline" fill="#A5ABB6" stroke="none" d="M 25 0.5 L 31.999871062971735 0.5 L 31.999871062971735 -0.5 L 25 -0.5 Z M 91.18737106297174 0.5 L 98.18724212594347 0.5 L 98.18724212594347 3.5 L 105.18724212594347 0 L 98.18724212594347 -3.5 L 98.18724212594347 -0.5 L 91.18737106297174 -0.5 Z"/><text text-anchor="middle" pointer-events="none" font-size="8px" fill="#000000" x="61.593621062971735" y="3" transform="rotate(180 61.593621062971735 0)" font-family="sans-serif">DESTINATION</text></g><g class="relationship" transform="translate(174.87431819493457 -108.46311307685399) rotate(474.2285134225856)"><path class="outline" fill="#A5ABB6" stroke="none" d="M 25 0.5 L 76.07313781195654 0.5 L 76.07313781195654 -0.5 L 25 -0.5 Z M 110.51845031195654 0.5 L 161.59158812391308 0.5 L 161.59158812391308 3.5 L 168.59158812391308 0 L 161.59158812391308 -3.5 L 161.59158812391308 -0.5 L 110.51845031195654 -0.5 Z"/><text text-anchor="middle" pointer-events="none" font-size="8px" fill="#000000" x="93.29579406195654" y="3" transform="rotate(180 93.29579406195654 0)" font-family="sans-serif">ORIGIN</text></g><g class="relationship" transform="translate(174.87431819493457 -108.46311307685399) rotate(224.10392103295942)"><path class="outline" fill="#A5ABB6" stroke="none" d="M 25 0.5 L 34.213725158601804 0.5 L 34.213725158601804 -0.5 L 25 -0.5 Z M 93.4012251586018 0.5 L 102.61495031720361 0.5 L 102.61495031720361 3.5 L 109.61495031720361 0 L 102.61495031720361 -3.5 L 102.61495031720361 -0.5 L 93.4012251586018 -0.5 Z"/><text text-anchor="middle" pointer-events="none" font-size="8px" fill="#000000" x="63.807475158601804" y="3" transform="rotate(180 63.807475158601804 0)" font-family="sans-serif">DESTINATION</text></g><g class="relationship" transform="translate(109.05195477900902 232.9099769780655) rotate(265.27536778021806)"><path class="outline" fill="#A5ABB6" stroke="none" d="M 25 0.5 L 61.97525693953473 0.5 L 61.97525693953473 -0.5 L 25 -0.5 Z M 96.42056943953473 0.5 L 133.39582637906946 0.5 L 133.39582637906946 3.5 L 140.39582637906946 0 L 133.39582637906946 -3.5 L 133.39582637906946 -0.5 L 96.42056943953473 -0.5 Z"/><text text-anchor="middle" pointer-events="none" font-size="8px" fill="#000000" x="79.19791318953473" y="3" transform="rotate(180 79.19791318953473 0)" font-family="sans-serif">ORIGIN</text></g><g class="relationship" transform="translate(109.05195477900902 232.9099769780655) rotate(419.21747901875966)"><path class="outline" fill="#A5ABB6" stroke="none" d="M 25 0.5 L 37.37656195842767 0.5 L 37.37656195842767 -0.5 L 25 -0.5 Z M 96.56406195842767 0.5 L 108.94062391685534 0.5 L 108.94062391685534 3.5 L 115.94062391685534 0 L 108.94062391685534 -3.5 L 108.94062391685534 -0.5 L 96.56406195842767 -0.5 Z"/><text text-anchor="middle" pointer-events="none" font-size="8px" fill="#000000" x="66.97031195842767" y="3" font-family="sans-serif">DESTINATION</text></g><g class="relationship" transform="translate(53.84540623664999 -102.75907574274552) rotate(436.31954826525964)"><path class="outline" fill="#A5ABB6" stroke="none" d="M 25 0.5 L 67.18902475614509 0.5 L 67.18902475614509 -0.5 L 25 -0.5 Z M 101.63433725614509 0.5 L 143.82336201229018 0.5 L 143.82336201229018 3.5 L 150.82336201229018 0 L 143.82336201229018 -3.5 L 143.82336201229018 -0.5 L 101.63433725614509 -0.5 Z"/><text text-anchor="middle" pointer-events="none" font-size="8px" fill="#000000" x="84.41168100614509" y="3" font-family="sans-serif">ORIGIN</text></g><g class="relationship" transform="translate(53.84540623664999 -102.75907574274552) rotate(283.7739205600235)"><path class="outline" fill="#A5ABB6" stroke="none" d="M 25 0.5 L 25.998909448014487 0.5 L 25.998909448014487 -0.5 L 25 -0.5 Z M 69.33484694801449 0.5 L 70.33375639602897 0.5 L 70.33375639602897 3.5 L 77.33375639602897 0 L 70.33375639602897 -3.5 L 70.33375639602897 -0.5 L 69.33484694801449 -0.5 Z"/><text text-anchor="middle" pointer-events="none" font-size="8px" fill="#000000" x="47.66687819801449" y="3" font-family="sans-serif">DESTIN…</text></g><g class="relationship" transform="translate(-5.919806996013642 -98.62989879738925) rotate(418.7025746500855)"><path class="outline" fill="#A5ABB6" stroke="none" d="M 25 0.5 L 76.82534305911501 0.5 L 76.82534305911501 -0.5 L 25 -0.5 Z M 111.27065555911501 0.5 L 163.09599861823003 0.5 L 163.09599861823003 3.5 L 170.09599861823003 0 L 163.09599861823003 -3.5 L 163.09599861823003 -0.5 L 111.27065555911501 -0.5 Z"/><text text-anchor="middle" pointer-events="none" font-size="8px" fill="#000000" x="94.04799930911501" y="3" font-family="sans-serif">ORIGIN</text></g><g class="relationship" transform="translate(-5.919806996013642 -98.62989879738925) rotate(309.100500111757)"><path class="outline" fill="#A5ABB6" stroke="none" d="M 25 0.5 L 33.603827381068626 0.5 L 33.603827381068626 -0.5 L 25 -0.5 Z M 92.79132738106863 0.5 L 101.39515476213725 0.5 L 101.39515476213725 3.5 L 108.39515476213725 0 L 101.39515476213725 -3.5 L 101.39515476213725 -0.5 L 92.79132738106863 -0.5 Z"/><text text-anchor="middle" pointer-events="none" font-size="8px" fill="#000000" x="63.197577381068626" y="3" font-family="sans-serif">DESTINATION</text></g><g class="relationship" transform="translate(87.33025536000042 -53.24032400099155) rotate(446.1808558788023)"><path class="outline" fill="#A5ABB6" stroke="none" d="M 25 0.5 L 40.070588379401165 0.5 L 40.070588379401165 -0.5 L 25 -0.5 Z M 74.51590087940116 0.5 L 89.58648925880233 0.5 L 89.58648925880233 3.5 L 96.58648925880233 0 L 89.58648925880233 -3.5 L 89.58648925880233 -0.5 L 74.51590087940116 -0.5 Z"/><text text-anchor="middle" pointer-events="none" font-size="8px" fill="#000000" x="57.293244629401165" y="3" font-family="sans-serif">ORIGIN</text></g><g class="relationship" transform="translate(87.33025536000042 -53.24032400099155) rotate(266.49526346991104)"><path class="outline" fill="#A5ABB6" stroke="none" d="M 25 0.5 L 41.50059572415904 0.5 L 41.50059572415904 -0.5 L 25 -0.5 Z M 100.68809572415904 0.5 L 117.18869144831808 0.5 L 117.18869144831808 3.5 L 124.18869144831808 0 L 117.18869144831808 -3.5 L 117.18869144831808 -0.5 L 100.68809572415904 -0.5 Z"/><text text-anchor="middle" pointer-events="none" font-size="8px" fill="#000000" x="71.09434572415904" y="3" transform="rotate(180 71.09434572415904 0)" font-family="sans-serif">DESTINATION</text></g><g class="relationship" transform="translate(-9.274095190110696 189.80698411247474) rotate(310.6994224907151)"><path class="outline" fill="#A5ABB6" stroke="none" d="M 25 0.5 L 59.55980071085885 0.5 L 59.55980071085885 -0.5 L 25 -0.5 Z M 94.00511321085885 0.5 L 128.5649139217177 0.5 L 128.5649139217177 3.5 L 135.5649139217177 0 L 128.5649139217177 -3.5 L 128.5649139217177 -0.5 L 94.00511321085885 -0.5 Z"/><text text-anchor="middle" pointer-events="none" font-size="8px" fill="#000000" x="76.78245696085885" y="3" font-family="sans-serif">ORIGIN</text></g><g class="relationship" transform="translate(-9.274095190110696 189.80698411247474) rotate(493.7966884560126)"><path class="outline" fill="#A5ABB6" stroke="none" d="M 25 0.5 L 43.27785688385477 0.5 L 43.27785688385477 -0.5 L 25 -0.5 Z M 102.46535688385477 0.5 L 120.74321376770953 0.5 L 120.74321376770953 3.5 L 127.74321376770953 0 L 120.74321376770953 -3.5 L 120.74321376770953 -0.5 L 102.46535688385477 -0.5 Z"/><text text-anchor="middle" pointer-events="none" font-size="8px" fill="#000000" x="72.87160688385477" y="3" transform="rotate(180 72.87160688385477 0)" font-family="sans-serif">DESTINATION</text></g><g class="relationship" transform="translate(225.70362325765902 177.91203829434036) rotate(220.1345417921728)"><path class="outline" fill="#A5ABB6" stroke="none" d="M 25 0.5 L 64.47630278466349 0.5 L 64.47630278466349 -0.5 L 25 -0.5 Z M 98.92161528466349 0.5 L 138.39791806932698 0.5 L 138.39791806932698 3.5 L 145.39791806932698 0 L 138.39791806932698 -3.5 L 138.39791806932698 -0.5 L 98.92161528466349 -0.5 Z"/><text text-anchor="middle" pointer-events="none" font-size="8px" fill="#000000" x="81.69895903466349" y="3" transform="rotate(180 81.69895903466349 0)" font-family="sans-serif">ORIGIN</text></g><g class="relationship" transform="translate(225.70362325765902 177.91203829434036) rotate(362.85126829271087)"><path class="outline" fill="#A5ABB6" stroke="none" d="M 25 0.5 L 32.775203776521224 0.5 L 32.775203776521224 -0.5 L 25 -0.5 Z M 91.96270377652122 0.5 L 99.73790755304245 0.5 L 99.73790755304245 3.5 L 106.73790755304245 0 L 99.73790755304245 -3.5 L 99.73790755304245 -0.5 L 91.96270377652122 -0.5 Z"/><text text-anchor="middle" pointer-events="none" font-size="8px" fill="#000000" x="62.368953776521224" y="3" font-family="sans-serif">DESTINATION</text></g><g class="relationship" transform="translate(27.459280211315907 -49.21458350149584) rotate(419.9078766476903)"><path class="outline" fill="#A5ABB6" stroke="none" d="M 25 0.5 L 47.058191083903154 0.5 L 47.058191083903154 -0.5 L 25 -0.5 Z M 81.50350358390315 0.5 L 103.56169466780631 0.5 L 103.56169466780631 3.5 L 110.56169466780631 0 L 103.56169466780631 -3.5 L 103.56169466780631 -0.5 L 81.50350358390315 -0.5 Z"/><text text-anchor="middle" pointer-events="none" font-size="8px" fill="#000000" x="64.28084733390315" y="3" font-family="sans-serif">ORIGIN</text></g><g class="relationship" transform="translate(27.459280211315907 -49.21458350149584) rotate(288.3581877035904)"><path class="outline" fill="#A5ABB6" stroke="none" d="M 25 0.5 L 47.47438157876867 0.5 L 47.47438157876867 -0.5 L 25 -0.5 Z M 106.66188157876867 0.5 L 129.13626315753734 0.5 L 129.13626315753734 3.5 L 136.13626315753734 0 L 129.13626315753734 -3.5 L 129.13626315753734 -0.5 L 106.66188157876867 -0.5 Z"/><text text-anchor="middle" pointer-events="none" font-size="8px" fill="#000000" x="77.06813157876867" y="3" font-family="sans-serif">DESTINATION</text></g><g class="relationship" transform="translate(48.88994899717711 218.92071828598853) rotate(287.14614058844415)"><path class="outline" fill="#A5ABB6" stroke="none" d="M 25 0.5 L 58.20760934397897 0.5 L 58.20760934397897 -0.5 L 25 -0.5 Z M 92.65292184397897 0.5 L 125.86053118795795 0.5 L 125.86053118795795 3.5 L 132.86053118795795 0 L 125.86053118795795 -3.5 L 125.86053118795795 -0.5 L 92.65292184397897 -0.5 Z"/><text text-anchor="middle" pointer-events="none" font-size="8px" fill="#000000" x="75.43026559397897" y="3" font-family="sans-serif">ORIGIN</text></g><g class="relationship" transform="translate(48.88994899717711 218.92071828598853) rotate(462.1948257930305)"><path class="outline" fill="#A5ABB6" stroke="none" d="M 25 0.5 L 43.61171226987527 0.5 L 43.61171226987527 -0.5 L 25 -0.5 Z M 102.79921226987527 0.5 L 121.41092453975054 0.5 L 121.41092453975054 3.5 L 128.41092453975054 0 L 121.41092453975054 -3.5 L 121.41092453975054 -0.5 L 102.79921226987527 -0.5 Z"/><text text-anchor="middle" pointer-events="none" font-size="8px" fill="#000000" x="73.20546226987527" y="3" transform="rotate(180 73.20546226987527 0)" font-family="sans-serif">DESTINATION</text></g></g><g class="layer nodes"><g class="node" transform="translate(95.42880191631419,68.0761543272062)"><circle class="outline" cx="0" cy="0" r="25" fill="#ECB5C9" stroke="#da7298" stroke-width="2px"/><text text-anchor="middle" pointer-events="none" font-family="sans-serif" dy="1.5625" font-size="25" fill="#2A2C34"/><text text-anchor="middle" pointer-events="none" x="0" y="5" font-size="10px" fill="#2A2C34" font-family="sans-serif"> LAX</text></g><g class="node" transform="translate(-189.20307903421357,80.6386193605794)"><circle class="outline" cx="0" cy="0" r="25" fill="#ECB5C9" stroke="#da7298" stroke-width="2px"/><text text-anchor="middle" pointer-events="none" font-family="sans-serif" dy="1.5625" font-size="25" fill="#2A2C34"/><text text-anchor="middle" pointer-events="none" x="0" y="5" font-size="10px" fill="#2A2C34" font-family="sans-serif"> SMF</text></g><g class="node" transform="translate(357.2784427975452,184.46514057496623)"><circle class="outline" cx="0" cy="0" r="25" fill="#ECB5C9" stroke="#da7298" stroke-width="2px"/><text text-anchor="middle" pointer-events="none" font-family="sans-serif" dy="1.5625" font-size="25" fill="#2A2C34"/><text text-anchor="middle" pointer-events="none" x="0" y="5" font-size="10px" fill="#2A2C34" font-family="sans-serif"> FAT</text></g><g class="node" transform="translate(380.36771505643475,-62.049802684812626)"><circle class="outline" cx="0" cy="0" r="25" fill="#ECB5C9" stroke="#da7298" stroke-width="2px"/><text text-anchor="middle" pointer-events="none" font-family="sans-serif" dy="1.5625" font-size="25" fill="#2A2C34"/><text text-anchor="middle" pointer-events="none" x="0" y="5" font-size="10px" fill="#2A2C34" font-family="sans-serif"> LAS</text></g><g class="node" transform="translate(181.18266021174418,353.99433106168954)"><circle class="outline" cx="0" cy="0" r="25" fill="#ECB5C9" stroke="#da7298" stroke-width="2px"/><text text-anchor="middle" pointer-events="none" font-family="sans-serif" dy="1.5625" font-size="25" fill="#2A2C34"/><text text-anchor="middle" pointer-events="none" x="0" y="5" font-size="10px" fill="#2A2C34" font-family="sans-serif"> TUS</text></g><g class="node" transform="translate(78.21019352940306,-202.14999503772287)"><circle class="outline" cx="0" cy="0" r="25" fill="#ECB5C9" stroke="#da7298" stroke-width="2px"/><text text-anchor="middle" pointer-events="none" font-family="sans-serif" dy="1.5625" font-size="25" fill="#2A2C34"/><text text-anchor="middle" pointer-events="none" x="0" y="5" font-size="10px" fill="#2A2C34" font-family="sans-serif"> ABQ</text></g><g class="node" transform="translate(-114.98789596862031,300.0570710831878)"><circle class="outline" cx="0" cy="0" r="25" fill="#ECB5C9" stroke="#da7298" stroke-width="2px"/><text text-anchor="middle" pointer-events="none" font-family="sans-serif" dy="1.5625" font-size="25" fill="#2A2C34"/><text text-anchor="middle" pointer-events="none" x="0" y="5" font-size="10px" fill="#2A2C34" font-family="sans-serif"> EWR</text></g><g class="node" transform="translate(16.483957917478605,368.8699213858501)"><circle class="outline" cx="0" cy="0" r="25" fill="#ECB5C9" stroke="#da7298" stroke-width="2px"/><text text-anchor="middle" pointer-events="none" font-family="sans-serif" dy="1.5625" font-size="25" fill="#2A2C34"/><text text-anchor="middle" pointer-events="none" x="0" y="5" font-size="10px" fill="#2A2C34" font-family="sans-serif"> IAH</text></g><g class="node" transform="translate(-54.8632261303808,133.95832722957806)"><circle class="outline" cx="0" cy="0" r="25" fill="#4C8EDA" stroke="#2870c2" stroke-width="2px"/><text text-anchor="middle" pointer-events="none" font-family="sans-serif" dy="1.5625" font-size="25" fill="#FFFFFF"/><text text-anchor="middle" pointer-events="none" x="0" y="5" font-size="10px" fill="#FFFFFF" font-family="sans-serif"> 11/4/2015</text></g><g class="node" transform="translate(267.59707400800437,134.3787441998122)"><circle class="outline" cx="0" cy="0" r="25" fill="#4C8EDA" stroke="#2870c2" stroke-width="2px"/><text text-anchor="middle" pointer-events="none" font-family="sans-serif" dy="1.5625" font-size="25" fill="#FFFFFF"/><text text-anchor="middle" pointer-events="none" x="0" y="5" font-size="10px" fill="#FFFFFF" font-family="sans-serif"> 11/4/2015</text></g><g class="node" transform="translate(243.0724077342034,-2.478308972955661)"><circle class="outline" cx="0" cy="0" r="25" fill="#4C8EDA" stroke="#2870c2" stroke-width="2px"/><text text-anchor="middle" pointer-events="none" font-family="sans-serif" dy="1.5625" font-size="25" fill="#FFFFFF"/><text text-anchor="middle" pointer-events="none" x="0" y="5" font-size="10px" fill="#FFFFFF" font-family="sans-serif"> 11/29/20…</text></g><g class="node" transform="translate(-33.79288755024908,62.13832140067849)"><circle class="outline" cx="0" cy="0" r="25" fill="#4C8EDA" stroke="#2870c2" stroke-width="2px"/><text text-anchor="middle" pointer-events="none" font-family="sans-serif" dy="1.5625" font-size="25" fill="#FFFFFF"/><text text-anchor="middle" pointer-events="none" x="0" y="5" font-size="10px" fill="#FFFFFF" font-family="sans-serif"> 11/2/2015</text></g><g class="node" transform="translate(166.88705682464982,217.6688115940214)"><circle class="outline" cx="0" cy="0" r="25" fill="#4C8EDA" stroke="#2870c2" stroke-width="2px"/><text text-anchor="middle" pointer-events="none" font-family="sans-serif" dy="1.5625" font-size="25" fill="#FFFFFF"/><text text-anchor="middle" pointer-events="none" x="0" y="5" font-size="10px" fill="#FFFFFF" font-family="sans-serif"> 11/1/2015</text></g><g class="node" transform="translate(115.03019245643434,-106.13803831311779)"><circle class="outline" cx="0" cy="0" r="25" fill="#4C8EDA" stroke="#2870c2" stroke-width="2px"/><text text-anchor="middle" pointer-events="none" font-family="sans-serif" dy="1.5625" font-size="25" fill="#FFFFFF"/><text text-anchor="middle" pointer-events="none" x="0" y="5" font-size="10px" fill="#FFFFFF" font-family="sans-serif"> 11/2/2015</text></g><g class="node" transform="translate(209.8079522984368,120.2248549393677)"><circle class="outline" cx="0" cy="0" r="25" fill="#4C8EDA" stroke="#2870c2" stroke-width="2px"/><text text-anchor="middle" pointer-events="none" font-family="sans-serif" dy="1.5625" font-size="25" fill="#FFFFFF"/><text text-anchor="middle" pointer-events="none" x="0" y="5" font-size="10px" fill="#FFFFFF" font-family="sans-serif"> 11/3/2015</text></g><g class="node" transform="translate(264.94660197334,74.70557250180948)"><circle class="outline" cx="0" cy="0" r="25" fill="#4C8EDA" stroke="#2870c2" stroke-width="2px"/><text text-anchor="middle" pointer-events="none" font-family="sans-serif" dy="1.5625" font-size="25" fill="#FFFFFF"/><text text-anchor="middle" pointer-events="none" x="0" y="5" font-size="10px" fill="#FFFFFF" font-family="sans-serif"> 11/1/2015</text></g><g class="node" transform="translate(-88.81264369901817,84.76056640230021)"><circle class="outline" cx="0" cy="0" r="25" fill="#4C8EDA" stroke="#2870c2" stroke-width="2px"/><text text-anchor="middle" pointer-events="none" font-family="sans-serif" dy="1.5625" font-size="25" fill="#FFFFFF"/><text text-anchor="middle" pointer-events="none" x="0" y="5" font-size="10px" fill="#FFFFFF" font-family="sans-serif"> 11/1/2015</text></g><g class="node" transform="translate(147.1862372552164,-55.68859917142602)"><circle class="outline" cx="0" cy="0" r="25" fill="#4C8EDA" stroke="#2870c2" stroke-width="2px"/><text text-anchor="middle" pointer-events="none" font-family="sans-serif" dy="1.5625" font-size="25" fill="#FFFFFF"/><text text-anchor="middle" pointer-events="none" x="0" y="5" font-size="10px" fill="#FFFFFF" font-family="sans-serif"> 11/3/2015</text></g><g class="node" transform="translate(-74.8120818650159,18.482221628763863)"><circle class="outline" cx="0" cy="0" r="25" fill="#4C8EDA" stroke="#2870c2" stroke-width="2px"/><text text-anchor="middle" pointer-events="none" font-family="sans-serif" dy="1.5625" font-size="25" fill="#FFFFFF"/><text text-anchor="middle" pointer-events="none" x="0" y="5" font-size="10px" fill="#FFFFFF" font-family="sans-serif"> 11/3/2015</text></g><g class="node" transform="translate(174.87431819493457,-108.46311307685399)"><circle class="outline" cx="0" cy="0" r="25" fill="#4C8EDA" stroke="#2870c2" stroke-width="2px"/><text text-anchor="middle" pointer-events="none" font-family="sans-serif" dy="1.5625" font-size="25" fill="#FFFFFF"/><text text-anchor="middle" pointer-events="none" x="0" y="5" font-size="10px" fill="#FFFFFF" font-family="sans-serif"> 11/1/2015</text></g><g class="node" transform="translate(109.05195477900902,232.9099769780655)"><circle class="outline" cx="0" cy="0" r="25" fill="#4C8EDA" stroke="#2870c2" stroke-width="2px"/><text text-anchor="middle" pointer-events="none" font-family="sans-serif" dy="1.5625" font-size="25" fill="#FFFFFF"/><text text-anchor="middle" pointer-events="none" x="0" y="5" font-size="10px" fill="#FFFFFF" font-family="sans-serif"> 11/2/2015</text></g><g class="node" transform="translate(53.84540623664999,-102.75907574274552)"><circle class="outline" cx="0" cy="0" r="25" fill="#4C8EDA" stroke="#2870c2" stroke-width="2px"/><text text-anchor="middle" pointer-events="none" font-family="sans-serif" dy="1.5625" font-size="25" fill="#FFFFFF"/><text text-anchor="middle" pointer-events="none" x="0" y="5" font-size="10px" fill="#FFFFFF" font-family="sans-serif"> 11/1/2015</text></g><g class="node" transform="translate(-5.919806996013642,-98.62989879738925)"><circle class="outline" cx="0" cy="0" r="25" fill="#4C8EDA" stroke="#2870c2" stroke-width="2px"/><text text-anchor="middle" pointer-events="none" font-family="sans-serif" dy="1.5625" font-size="25" fill="#FFFFFF"/><text text-anchor="middle" pointer-events="none" x="0" y="5" font-size="10px" fill="#FFFFFF" font-family="sans-serif"> 11/2/2015</text></g><g class="node" transform="translate(87.33025536000042,-53.24032400099155)"><circle class="outline" cx="0" cy="0" r="25" fill="#4C8EDA" stroke="#2870c2" stroke-width="2px"/><text text-anchor="middle" pointer-events="none" font-family="sans-serif" dy="1.5625" font-size="25" fill="#FFFFFF"/><text text-anchor="middle" pointer-events="none" x="0" y="5" font-size="10px" fill="#FFFFFF" font-family="sans-serif"> 11/4/2015</text></g><g class="node" transform="translate(-9.274095190110696,189.80698411247474)"><circle class="outline" cx="0" cy="0" r="25" fill="#4C8EDA" stroke="#2870c2" stroke-width="2px"/><text text-anchor="middle" pointer-events="none" font-family="sans-serif" dy="1.5625" font-size="25" fill="#FFFFFF"/><text text-anchor="middle" pointer-events="none" x="0" y="5" font-size="10px" fill="#FFFFFF" font-family="sans-serif"> 11/30/20…</text></g><g class="node" transform="translate(225.70362325765902,177.91203829434036)"><circle class="outline" cx="0" cy="0" r="25" fill="#4C8EDA" stroke="#2870c2" stroke-width="2px"/><text text-anchor="middle" pointer-events="none" font-family="sans-serif" dy="1.5625" font-size="25" fill="#FFFFFF"/><text text-anchor="middle" pointer-events="none" x="0" y="5" font-size="10px" fill="#FFFFFF" font-family="sans-serif"> 11/2/2015</text></g><g class="node" transform="translate(27.459280211315907,-49.21458350149584)"><circle class="outline" cx="0" cy="0" r="25" fill="#4C8EDA" stroke="#2870c2" stroke-width="2px"/><text text-anchor="middle" pointer-events="none" font-family="sans-serif" dy="1.5625" font-size="25" fill="#FFFFFF"/><text text-anchor="middle" pointer-events="none" x="0" y="5" font-size="10px" fill="#FFFFFF" font-family="sans-serif"> 11/3/2015</text></g><g class="node" transform="translate(48.88994899717711,218.92071828598853)"><circle class="outline" cx="0" cy="0" r="25" fill="#4C8EDA" stroke="#2870c2" stroke-width="2px"/><text text-anchor="middle" pointer-events="none" font-family="sans-serif" dy="1.5625" font-size="25" fill="#FFFFFF"/><text text-anchor="middle" pointer-events="none" x="0" y="5" font-size="10px" fill="#FFFFFF" font-family="sans-serif"> 11/30/20…</text></g></g></svg>